<svg xmlns="http://www.w3.org/2000/svg" viewBox="0 0 480 320" width="480" height="320">
  <rect width="480" height="320" fill="#eef0f2"/>
  <g>
    <rect x="40" y="40" width="190" height="112" rx="8" fill="#ffffff" stroke="#8f99a3" stroke-width="3"/>
    <rect x="60" y="58" width="62" height="12" rx="6" fill="#7d8791"/>
    <rect x="60" y="80" width="46" height="20" rx="4" fill="#5f6a74"/>
    <rect x="60" y="112" width="120" height="7" rx="3" fill="#c6ccd3"/>
    <rect x="60" y="126" width="96" height="7" rx="3" fill="#c6ccd3"/>

    <rect x="250" y="40" width="190" height="112" rx="8" fill="#ffffff" stroke="#cfd5db" stroke-width="2"/>
    <rect x="270" y="58" width="62" height="12" rx="6" fill="#8f99a3"/>
    <rect x="270" y="80" width="46" height="20" rx="4" fill="#8f99a3"/>
    <rect x="270" y="112" width="120" height="7" rx="3" fill="#c6ccd3"/>
    <rect x="270" y="126" width="96" height="7" rx="3" fill="#c6ccd3"/>

    <rect x="40" y="168" width="190" height="112" rx="8" fill="#ffffff" stroke="#cfd5db" stroke-width="2"/>
    <rect x="60" y="186" width="62" height="12" rx="6" fill="#8f99a3"/>
    <rect x="60" y="208" width="46" height="20" rx="4" fill="#8f99a3"/>
    <rect x="60" y="240" width="120" height="7" rx="3" fill="#c6ccd3"/>
    <rect x="60" y="254" width="96" height="7" rx="3" fill="#c6ccd3"/>

    <rect x="250" y="168" width="190" height="112" rx="8" fill="#ffffff" stroke="#cfd5db" stroke-width="2"/>
    <rect x="270" y="186" width="62" height="12" rx="6" fill="#8f99a3"/>
    <rect x="270" y="208" width="46" height="20" rx="4" fill="#8f99a3"/>
    <rect x="270" y="240" width="120" height="7" rx="3" fill="#c6ccd3"/>
    <rect x="270" y="254" width="96" height="7" rx="3" fill="#c6ccd3"/>
  </g>
</svg>
